<?xml version="1.0" encoding="UTF-8"?>
<svg
  xmlns="http://www.w3.org/2000/svg"
  version="1.1"
  width="128.14653mm"
  height="62.741527mm"
  viewBox="0 0 484.066667 237.066667">
  <path
    style="fill:none;stroke:#000000;stroke-width:21.333334px;stroke-linecap:round;stroke-linejoin:round;"
    d="  M 419.73333,195.13333   L 418,197   L 416.4,198.86667   L 413.26667,202.46667   L 410.26667,205.66667   L 408.8,207.2   L 407.46667,208.73333   L 404.73333,211.4   L 403.4,212.66667   L 402.2,213.93333   L 399.73333,216.2   L 397.53333,218.2   L 395.33333,219.86667   L 393.4,221.33333   L 392.4,221.93333   L 391.53333,222.53333   L 389.86667,223.46667   L 388.33333,224.13333   L 386.93333,224.53333   L 385.66667,224.66667   L 385.06667,224.66667   L 384.6,224.66667   L 383.53333,224.33333   L 382.6,223.86667   L 381.66667,223.26667   L 380.93333,222.53333   L 380.2,221.6   L 379.6,220.6   L 379,219.46667   L 378.53333,218.2   L 378.06667,216.66667   L 377.73333,215.13333   L 377.4,213.33333   L 377.2,211.53333   L 377,209.46667   L 377,207.33333   L 377,205   L 377.13333,202.66667   L 377.13333,200   L 377.26667,197.2   L 377.26667,194.13333   L 377.26667,192.53333   L 377.26667,191.73333   L 377.26667,191.33333   L 377.33333,191   L 377.33333,187.53333   L 377.33333,184   L 377.26667,183.46667   L 377.26667,183   L 377.26667,182.06667   L 377.26667,180.2   L 377.26667,176.33333   L 377.13333,172.13333   L 377.06667,171.53333   L 377.06667,171   L 377.06667,169.93333   L 377.06667,167.8   L 376.93333,163.26667   L 376.86667,162.06667   L 376.86667,160.93333   L 376.86667,158.6   L 376.73333,156.13333   L 376.66667,155.46667   L 376.66667,154.86667   L 376.66667,153.66667   L 376.53333,148.6   L 376.4,145.93333   L 376.33333,143.26667   L 376.2,137.86667   L 376,135.13333   L 375.8,133.8   L 375.66667,132.6   L 375.4,131.33333   L 375.2,130.2   L 374.66667,128.06667   L 373.93333,126   L 373.2,124.2   L 372.26667,122.53333   L 371.73333,121.73333   L 371.26667,121.06667   L 370.06667,119.73333   L 368.8,118.6   L 367.4,117.6   L 365.86667,116.86667   L 364.2,116.26667   L 363.26667,116   L 362.4,115.86667   L 361.4,115.66667   L 360.46667,115.6   L 358.53333,115.53333   L 356.33333,115.6   L 354.06667,115.86667   L 351.66667,116.26667   L 350.4,116.53333   L 349.2,116.93333   L 346.53333,117.66667   L 343.8,118.66667   L 340.93333,119.8   L 339.4,120.4   L 337.93333,121.13333   L 336.33333,121.8   L 334.8,122.6   L 331.53333,124.26667   L 328.13333,126.06667   L 324.66667,128.13333   L 321,130.33333   L 319.13333,131.46667   L 317.33333,132.73333   L 313.46667,135.26667   L 309.53333,138  " />
  <path
    style="fill:none;stroke:#000000;stroke-width:21.333334px;stroke-linecap:round;stroke-linejoin:round;"
    d="  M 448.46667,226.4   L 450.33333,223.73333   L 452.13333,221.2   L 453.66667,218.66667   L 455.13333,216.2   L 456.33333,213.66667   L 457.46667,211.26667   L 458.33333,208.86667   L 459.13333,206.53333   L 459.66667,204.13333   L 460.06667,201.8   L 460.26667,199.53333   L 460.4,197.26667   L 460.26667,195   L 460,192.8   L 459.53333,190.6   L 459,188.46667   L 458.13333,186.26667   L 457.2,184.13333   L 456.06667,182   L 454.8,180   L 453.26667,177.93333   L 451.66667,175.93333   L 449.86667,173.93333   L 448,172.06667   L 445.8,170.06667   L 443.53333,168.2   L 441,166.33333   L 438.4,164.53333   L 435.53333,162.66667   L 432.6,160.86667   L 429.46667,159.13333   L 426.2,157.4   L 422.86667,155.6   L 419.86667,153.86667   L 417.06667,152.2   L 414.66667,150.6   L 412.46667,148.93333   L 410.6,147.33333   L 409,145.73333   L 407.66667,144.26667   L 406.6,142.66667   L 405.8,141.2   L 405.26667,139.73333   L 405.06667,138.33333   L 405.06667,136.86667   L 405.4,135.53333   L 405.93333,134.2   L 406.86667,132.93333   L 407.93333,131.6   L 409.4,130.26667   L 411.06667,129   L 413.06667,127.8   L 415.26667,126.6   L 417.8,125.4   L 420.6,124.26667   L 423.66667,123.2   L 427,122.06667   L 430.6,121   L 434.46667,119.93333   L 438.66667,119   L 443.06667,117.93333   L 447.8,117   L 452.8,116.06667   L 458.13333,115.2   L 459.86667,115   L 461.53333,114.86667   L 463.06667,114.8   L 464.6,114.8   L 465.86667,114.8   L 467.13333,114.93333   L 468.26667,115.13333   L 469.33333,115.4   L 470.2,115.66667   L 471,116   L 471.66667,116.4   L 472.26667,116.93333   L 472.73333,117.4   L 473.06667,118   L 473.33333,118.66667   L 473.53333,119.4   L 473.46667,120.13333   L 473.4,120.93333   L 473.2,121.8   L 472.93333,122.73333   L 472.46667,123.66667   L 472,124.73333   L 471.4,125.86667   L 470.66667,127.06667   L 469.8,128.26667   L 468.8,129.53333   L 467.73333,130.86667   L 466.6,132.33333   L 465.26667,133.73333   L 463.86667,135.26667   L 462.33333,136.86667   L 460.8,138.53333  " />
  <path
    style="fill:none;stroke:#000000;stroke-width:21.333334px;stroke-linecap:round;stroke-linejoin:round;"
    d="  M 195,77.8   L 198.06667,74   L 201.13333,70.333333   L 204.06667,66.666667   L 207.06667,63.2   L 209.86667,59.666667   L 212.73333,56.333333   L 215.46667,53   L 218.2,49.8   L 220.8,46.6   L 223.4,43.533333   L 225.86667,40.466667   L 228.4,37.6   L 230.8,34.666667   L 233.2,31.933333   L 235.46667,29.2   L 237.8,26.6   L 237.13333,27.066667   L 236.53333,27.6   L 235.86667,28.066667   L 235.26667,28.6   L 234.53333,29   L 233.86667,29.466667   L 233.13333,29.866667   L 232.46667,30.333333   L 231.66667,30.666667   L 230.93333,31.066667   L 230.13333,31.4   L 229.4,31.8   L 227.73333,32.466667   L 226.13333,33.066667   L 225.2,33.266667   L 224.33333,33.533333   L 223.4,33.733333   L 222.53333,34   L 221.53333,34.133333   L 220.6,34.333333   L 219.6,34.466667   L 218.66667,34.666667   L 217.6,34.733333   L 216.6,34.866667   L 215.53333,34.933333   L 214.53333,35.066667   L 212.4,35.2   L 210.26667,35.333333   L 209.06667,35.266667   L 207.93333,35.266667   L 206.73333,35.2   L 205.6,35.2   L 204.33333,35.066667   L 203.13333,35   L 200.73333,34.8   L 199.4,34.6   L 198.13333,34.466667   L 196.8,34.266667   L 195.53333,34.133333   L 192.86667,33.666667   L 190.2,33.2   L 188.73333,32.866667   L 187.33333,32.6   L 185.86667,32.266667   L 184.46667,32   L 181.53333,31.266667   L 178.6,30.533333   L 177,30.066667   L 175.46667,29.666667   L 173.86667,29.2   L 172.33333,28.8   L 169.13333,27.866667   L 165.93333,26.933333   L 159.33333,24.866667   L 153,22.933333   L 146.66667,21.133333   L 140.6,19.466667   L 134.53333,17.933333   L 128.73333,16.6   L 123.06667,15.333333   L 117.53333,14.333333   L 112.06667,13.333333   L 106.8,12.533333   L 101.66667,11.8   L 96.666667,11.333333   L 91.8,10.933333   L 87.066667,10.733333   L 82.466667,10.666667   L 78.066667,10.733333   L 73.666667,10.866667   L 69.266667,11.4   L 64.866667,12.066667   L 60.6,13.066667   L 56.266667,14.2   L 52,15.666667   L 47.733333,17.266667   L 43.6,19.266667   L 39.333333,21.4   L 35.133333,23.8   L 31,26.4   L 26.866667,29.333333   L 22.733333,32.4   L 18.666667,35.8   L 14.666667,39.4   L 10.666667,43.266667   L 17.266667,41.733333   L 23.866667,40.266667   L 30.266667,38.866667   L 36.6,37.6   L 42.8,36.333333   L 48.866667,35.2   L 54.8,34.066667   L 60.666667,33.066667   L 66.333333,32.066667   L 71.933333,31.133333   L 77.333333,30.266667   L 82.733333,29.533333   L 87.933333,28.8   L 93.066667,28.133333   L 98.066667,27.533333   L 102.93333,27.066667   L 107.66667,26.533333   L 112.26667,26.133333   L 116.73333,25.8   L 121.13333,25.533333   L 125.33333,25.266667   L 129.53333,25.133333   L 133.6,25.066667   L 137.53333,25.133333   L 141.26667,25.133333   L 144.93333,25.266667   L 148.46667,25.466667   L 151.93333,25.733333   L 155.2,26   L 158.4,26.4   L 161.46667,26.866667   L 164.46667,27.466667   L 167.2,28   L 169.93333,28.6   L 172.46667,29.266667   L 174.93333,30.066667   L 177.26667,30.866667   L 179.46667,31.8   L 181.53333,32.733333   L 183.6,33.8   L 185.4,34.866667   L 187.13333,36   L 188.73333,37.2   L 190.26667,38.533333   L 191.6,39.866667   L 192.86667,41.266667   L 194,42.733333   L 195.06667,44.333333   L 195.93333,45.866667   L 196.66667,47.533333   L 197.26667,49.266667   L 197.86667,51.066667   L 198.26667,52.866667   L 198.6,54.8   L 198.8,56.8   L 198.86667,58.933333   L 198.8,61   L 198.6,63.2   L 198.26667,65.466667   L 197.86667,67.8   L 197.26667,70.133333   L 196.66667,72.6   L 195.86667,75.133333   L 195,77.8  " />
  <path
    style="fill:none;stroke:#000000;stroke-width:21.333334px;stroke-linecap:round;stroke-linejoin:round;"
    d="  M 261.53333,206.6   L 258.53333,207.93333   L 255.66667,209.26667   L 252.8,210.53333   L 250.06667,211.8   L 247.33333,212.93333   L 244.73333,214.06667   L 242.13333,215.06667   L 239.66667,216.06667   L 236.53333,217.13333   L 233.6,218.13333   L 230.73333,219   L 228,219.86667   L 225.33333,220.53333   L 222.86667,221.13333   L 220.4,221.6   L 218.13333,222.06667   L 215.86667,222.33333   L 213.8,222.53333   L 211.73333,222.6   L 209.93333,222.6   L 208.13333,222.46667   L 206.46667,222.26667   L 204.86667,221.93333   L 203.46667,221.6   L 202.06667,221   L 200.8,220.4   L 199.6,219.66667   L 198.6,218.86667   L 197.6,217.86667   L 196.8,216.86667   L 196.06667,215.73333   L 195.53333,214.53333   L 194.93333,213.13333   L 194.53333,211.66667   L 194.2,210.13333   L 194.06667,208.53333   L 193.93333,206.73333   L 194,204.93333   L 194.06667,203   L 194.4,201   L 195.06667,196.8   L 196,192.86667   L 197.26667,189.06667   L 198.86667,185.53333   L 200.66667,182.13333   L 201.66667,180.46667   L 202.8,178.93333   L 205.2,175.93333   L 206.46667,174.46667   L 207.93333,173.13333   L 209.33333,171.73333   L 210.86667,170.46667   L 214.13333,168   L 215.8,166.8   L 217.66667,165.73333   L 219.53333,164.66667   L 221.53333,163.73333   L 225.6,161.8   L 230,160.13333   L 232.26667,159.33333   L 234.66667,158.66667   L 239.66667,157.4   L 241.73333,157   L 242.8,156.86667   L 244,156.93333   L 246.46667,157.06667   L 247.73333,157.26667   L 249.13333,157.6   L 250.46667,157.86667   L 251.93333,158.33333   L 254.93333,159.4   L 256.46667,160   L 258.13333,160.73333   L 261.53333,162.4  " />
  <path
    style="fill:none;stroke:#000000;stroke-width:21.333334px;stroke-linecap:round;stroke-linejoin:round;"
    d="  M 277.4,220.26667   L 275.93333,221.13333   L 274.53333,221.8   L 273.2,222.26667   L 272,222.53333   L 271.06667,222.46667   L 270.2,222.33333   L 269.33333,222   L 268.53333,221.66667   L 267.73333,221.06667   L 267,220.46667   L 266.33333,219.6   L 265.73333,218.73333   L 265.06667,217.6   L 264.46667,216.46667   L 263.86667,215.06667   L 263.33333,213.66667   L 262.8,212   L 262.33333,210.33333   L 261.93333,208.53333   L 261.53333,206.6  " />
  <path
    style="fill:none;stroke:#000000;stroke-width:21.333334px;stroke-linecap:round;stroke-linejoin:round;"
    d="  M 306.8,222.73333   L 308.26667,212.06667   L 309.46667,201.53333   L 309.93333,196.2   L 310.33333,190.86667   L 310.86667,180.33333   L 311,169.66667   L 310.86667,159.13333   L 310.33333,148.53333   L 309.53333,138  " />
  <path
    style="fill:none;stroke:#000000;stroke-width:21.333334px;stroke-linecap:round;stroke-linejoin:round;"
    d="  M 261.53333,206.6   L 261.53333,162.4  " />
  <path
    style="fill:none;stroke:#000000;stroke-width:21.333334px;stroke-linecap:round;stroke-linejoin:round;"
    d="  M 261.53333,162.4   L 261.66667,159.73333   L 261.8,157.2   L 261.86667,154.66667   L 261.93333,152.26667   L 261.86667,149.86667   L 261.8,147.6   L 261.66667,145.4   L 261.53333,143.33333   L 261.26667,141.2   L 261,139.2   L 260.66667,137.26667   L 260.33333,135.46667   L 259.86667,133.66667   L 259.4,132   L 258.86667,130.33333   L 258.33333,128.86667   L 257.66667,127.33333   L 257,125.93333   L 256.26667,124.53333   L 255.53333,123.26667   L 254.66667,122   L 253.8,120.93333   L 252.86667,119.86667   L 251.93333,118.93333   L 250.86667,117.93333   L 249.8,117.13333   L 248.66667,116.33333   L 247.53333,115.66667   L 246.26667,115   L 245.06667,114.46667   L 243.73333,114   L 242.46667,113.66667   L 241,113.26667   L 239.6,113   L 236.8,112.73333   L 233.86667,112.8   L 232.4,112.93333   L 231,113.26667   L 229.46667,113.53333   L 228,114   L 226.46667,114.46667   L 225,115.13333   L 221.93333,116.53333   L 218.86667,118.33333   L 217.2,119.26667   L 215.6,120.4   L 212.4,122.86667   L 209.06667,125.6   L 207.4,127.06667   L 205.8,128.73333   L 204.06667,130.33333   L 202.4,132.13333   L 200.66667,133.93333   L 199,135.93333   L 197.2,137.86667   L 195.46667,140   L 192,144.46667   L 191,145.8  " />
  <path
    style="fill:none;stroke:#000000;stroke-width:21.333334px;stroke-linecap:round;stroke-linejoin:round;"
    d="  M 127.13333,166.93333   L 125.2,169.6   L 123.46667,172.26667   L 121.73333,174.8   L 120.13333,177.33333   L 118.53333,179.73333   L 117.06667,182.13333   L 115.66667,184.4   L 114.4,186.66667   L 113.06667,188.8   L 111.86667,190.93333   L 110.73333,192.93333   L 109.73333,194.93333   L 108.73333,196.8   L 107.86667,198.66667   L 107,200.46667   L 106.26667,202.26667   L 105.53333,203.86667   L 104.93333,205.46667   L 104.33333,206.93333   L 103.86667,208.46667   L 103.4,209.8   L 103.06667,211.13333   L 102.8,212.4   L 102.66667,213.66667   L 102.46667,214.73333   L 102.46667,215.8   L 102.46667,216.8   L 102.6,217.8   L 102.73333,218.6   L 103,219.4   L 103.26667,220.13333   L 103.73333,220.86667   L 104.13333,221.4   L 104.66667,221.93333   L 105.2,222.4   L 105.86667,222.86667   L 106.53333,223.13333   L 107.4,223.4   L 108.26667,223.6   L 109.26667,223.8   L 110.2,223.8   L 111.33333,223.8   L 112.46667,223.73333   L 113.73333,223.66667   L 115,223.46667   L 116.4,223.26667   L 117.8,222.93333   L 119.4,222.6   L 120.93333,222.06667   L 122.6,221.6   L 124.26667,221   L 126.13333,220.4   L 127.93333,219.66667   L 129.93333,218.93333   L 131.93333,218.06667   L 134.06667,217.2   L 136.13333,216.2   L 138.4,215.2   L 140.66667,214.06667   L 143.06667,212.93333   L 145.46667,211.66667   L 148,210.4   L 150.6,209   L 153.33333,207.6   L 149.4,208.66667   L 147.46667,209.13333   L 145.66667,209.66667   L 142.13333,210.4   L 138.86667,211.13333   L 135.73333,211.6   L 132.86667,211.93333   L 130.13333,212.13333   L 127.66667,212.2   L 126.4,212.06667   L 125.26667,212   L 124.13333,211.86667   L 123.13333,211.8   L 121.2,211.33333   L 119.53333,210.8   L 118,210.06667   L 116.73333,209.2   L 115.6,208.13333   L 114.73333,207   L 114.26667,206.26667   L 113.93333,205.6   L 113.6,204.86667   L 113.4,204.13333   L 113.06667,202.46667   L 113,200.66667   L 113.06667,198.6   L 113.13333,197.53333   L 113.33333,196.53333   L 113.8,194.2   L 114.53333,191.86667   L 114.86667,190.53333   L 115.33333,189.26667   L 115.8,187.86667   L 116.4,186.53333   L 117.66667,183.6   L 119.2,180.6   L 120.86667,177.33333   L 121.73333,175.66667   L 122.73333,174.06667   L 124.8,170.53333   L 127.13333,166.93333  " />
  <path
    style="fill:none;stroke:#000000;stroke-width:21.333334px;stroke-linecap:round;stroke-linejoin:round;"
    d="  M 309.53333,138   L 309.26667,135   L 309.06667,133.6   L 308.93333,132.33333   L 308.66667,131   L 308.46667,129.8   L 308,127.6   L 307.33333,125.46667   L 306.66667,123.66667   L 305.86667,122   L 305.4,121.26667   L 305,120.66667   L 304,119.4   L 302.93333,118.46667   L 301.73333,117.66667   L 300.53333,117.2   L 299.13333,116.86667   L 297.73333,116.8   L 296.93333,116.8   L 296.2,116.93333   L 294.6,117.33333  " />
  <path
    style="fill:none;stroke:#000000;stroke-width:21.333334px;stroke-linecap:round;stroke-linejoin:round;"
    d="  M 127.13333,166.93333   L 130.6,161.73333   L 134.26667,156.53333   L 138,151.2   L 141.86667,145.93333   L 145.73333,140.46667   L 149.73333,135.06667   L 153.8,129.53333   L 158.06667,124.06667   L 162.26667,118.4   L 166.66667,112.8   L 171.13333,107.06667   L 175.73333,101.33333   L 180.33333,95.466667   L 185.13333,89.666667   L 190,83.733333   L 195,77.8  " />
</svg>